<svg fill="#000000" xmlns="http://www.w3.org/2000/svg"  viewBox="0 0 48 48" width="24px" height="24px"><path fill="none" stroke="#000000" stroke-linejoin="round" stroke-miterlimit="10" stroke-width="3" d="M23.857,10 c-6.278,0-12.176,0.469-15.316,1.125c-2.093,0.469-3.9,1.875-4.281,4.031C3.881,17.406,3.5,20.281,3.5,24.5s0.381,7,0.856,9.344 c0.381,2.063,2.188,3.563,4.281,4.031C11.966,38.531,17.674,39,23.952,39s11.986-0.469,15.316-1.125 c2.093-0.469,3.9-1.875,4.281-4.031c0.381-2.344,0.856-5.219,0.951-9.438c0-4.219-0.476-7.094-0.951-9.438 c-0.381-2.063-2.188-3.563-4.281-4.031C35.939,10.469,30.136,10,23.857,10L23.857,10z"/><path d="M23.857,10c-6.278,0-12.176,0.469-15.316,1.125c-2.093,0.469-3.9,1.875-4.281,4.031C3.881,17.406,3.5,20.281,3.5,24.5 s0.381,7,0.856,9.344c0.381,2.063,2.188,3.563,4.281,4.031C11.966,38.531,17.674,39,23.952,39s11.986-0.469,15.316-1.125 c2.093-0.469,3.9-1.875,4.281-4.031c0.381-2.344,0.856-5.219,0.951-9.438c0-4.219-0.476-7.094-0.951-9.438 c-0.381-2.063-2.188-3.563-4.281-4.031C35.939,10.469,30.136,10,23.857,10L23.857,10z M18.038,28.862v-9.723 c0-1.639,1.791-2.667,3.231-1.854l8.604,4.862c1.451,0.82,1.451,2.888,0,3.708l-8.604,4.862 C19.83,31.529,18.038,30.501,18.038,28.862z"/></svg>